<svg width="135" height="91" viewBox="0 0 135 91" fill="none" xmlns="http://www.w3.org/2000/svg">
<path d="M19.2821 75.8505L11.4601 81.6033H11V9H19.052L19.2821 75.8505Z" fill="#D8D5DB"/>
<path d="M52.8705 42.3261H47.1191L46.9443 57.4022C46.9443 57.4022 52.4104 58.7908 52.8705 57.4022C53.3307 56.0136 52.8705 60.9728 52.8705 60.9728H46.9028L46.72 76.7408C51.7081 77.47 58.3919 78.4294 59.3122 76.7408C60.2324 75.0522 59.3122 82 59.3122 82H46.659L38.696 76.2473L38.837 39.5489H55.6312V44.5082L52.8705 42.3261Z" fill="#D8D5DB"/>
<path d="M60.4624 45.5V39.5489H84.3885V45.5L76.7966 41.3342L76.3364 74.2636L68.5145 81.2065L68.0544 41.731H65.2937L60.4624 45.5Z" fill="#D8D5DB"/>
<path d="M95.2012 80.413V39.5489H112.225C113.957 39.5948 114.895 39.6531 116.367 39.9457C119.737 41.4617 120.905 42.8899 122.926 45.3633L123.038 45.5C124.24 48.3436 124.118 50.0234 123.728 53.038C123.224 55.6708 122.215 56.682 120.278 58.394C118.137 59.956 116.748 60.703 113.836 61.7663C111.229 62.071 109.771 62.1348 107.164 61.7663C105.327 61.2854 104.451 60.9193 103.023 60.1793V80.413H95.2012Z" fill="#D8D5DB"/>
<path d="M42.5179 30.0272L35.6162 33.3995L115.676 33.9946L118.897 28.0435H113.146L112.225 29.4321L42.5179 30.0272Z" fill="#D8D5DB"/>
</svg>
